<svg width="174" height="66" viewBox="0 0 174 66" fill="none" xmlns="http://www.w3.org/2000/svg">
<path d="M86.258 65.114C85.248 65.114 84.261 64.8615 83.2969 64.3565C82.3328 63.8515 81.6442 63.0252 81.231 61.8774C81.1851 61.7397 81.231 61.6249 81.3687 61.5331C81.5064 61.4872 81.6212 61.579 81.713 61.8086C82.1721 62.6808 82.746 63.3236 83.4346 63.7367C84.1691 64.1499 84.9266 64.3565 85.7071 64.3565C85.8907 64.3565 86.0744 64.3336 86.258 64.2876C86.4875 64.2876 86.6941 64.2647 86.8778 64.2188C88.4387 63.8515 89.6553 62.9333 90.5275 61.4643C91.4457 59.9952 92.0884 58.2736 92.4557 56.2995C92.8689 54.3254 93.1214 52.3284 93.2132 50.3084C93.305 48.3343 93.328 46.6357 93.2821 45.2125C91.9966 45.9471 90.6652 46.5898 89.288 47.1407C87.9566 47.6916 86.5564 48.1507 85.0873 48.518C84.3987 48.7016 83.5953 48.8623 82.6771 49C81.8048 49.0918 80.8637 49.1377 79.8537 49.1377C78.0633 49.1377 76.2958 48.8164 74.5512 48.1736C72.8526 47.485 71.6819 46.1996 71.0392 44.3173C70.8556 43.8582 70.7408 43.3991 70.6949 42.94C70.649 42.435 70.626 41.953 70.626 41.4939C70.626 40.1625 70.8097 38.8771 71.1769 37.6376C71.5901 36.3521 72.0263 35.2044 72.4853 34.1944C71.4294 33.5517 70.4883 32.7712 69.662 31.853C68.8815 30.9349 68.2847 29.879 67.8715 28.6853C67.6879 28.1344 67.5501 27.5835 67.4583 27.0326C67.3665 26.4817 67.3206 25.9538 67.3206 25.4488C67.3206 23.3829 67.8945 21.5006 69.0422 19.802C70.1899 18.0574 71.6131 16.5884 73.3117 15.3947C75.0103 14.2011 76.686 13.4206 78.3387 13.0534C78.5224 13.0075 78.9355 12.9386 79.5783 12.8468C80.2669 12.755 80.9096 12.7091 81.5064 12.7091C82.241 12.7091 82.6312 12.8009 82.6771 12.9845C82.7689 13.1681 82.7001 13.26 82.4705 13.26C81.8278 13.26 81.208 13.26 80.6112 13.26C80.0144 13.26 79.3946 13.3288 78.7519 13.4666C77.191 13.8338 75.6531 14.5684 74.1381 15.6702C72.669 16.7261 71.4294 18.0345 70.4194 19.5954C69.4554 21.1563 68.9733 22.8779 68.9733 24.7601C68.9733 25.2651 69.0192 25.7931 69.111 26.344C69.2029 26.849 69.3406 27.3769 69.5242 27.9278C70.2129 29.856 71.4524 31.4399 73.2428 32.6794C74.7578 29.7871 76.4335 27.2622 78.2699 25.1044C80.1062 22.9008 82.0344 20.812 84.0544 18.8379C86.0744 16.8179 88.1173 14.6831 90.1832 12.4336C90.1832 12.0204 90.1603 11.5843 90.1143 11.1252C90.1143 10.6661 90.1143 10.207 90.1143 9.74793C90.1143 8.64612 90.1602 7.54431 90.2521 6.4425C90.3898 5.29478 90.6423 4.30774 91.0096 3.48138C91.285 2.88456 91.6293 2.28775 92.0425 1.69093C92.5016 1.04821 93.0755 0.726848 93.7641 0.726848C94.2232 0.726848 94.6134 0.88753 94.9348 1.20889C95.2561 1.48435 95.5086 1.85162 95.6923 2.3107C95.8759 2.72388 95.9677 3.22888 95.9677 3.8257C95.9677 4.83569 95.6923 5.84569 95.1414 6.85568C94.6364 7.86567 94.0395 8.8068 93.3509 9.67907C92.6623 10.5054 92.0425 11.24 91.4916 11.8827C91.4916 13.765 91.6293 15.6931 91.9048 17.6672C92.2261 19.5954 92.5246 21.5006 92.8 23.3829C93.8559 22.0515 95.0955 20.812 96.5186 19.6642C97.9877 18.4706 99.5716 17.6672 101.27 17.254C101.821 17.1163 102.418 17.0474 103.061 17.0474C103.979 17.0474 104.851 17.277 105.677 17.7361C106.55 18.1493 107.192 18.9527 107.606 20.1463C107.881 20.9726 108.019 21.8908 108.019 22.9008C108.019 24.0945 107.858 25.334 107.537 26.6194C107.215 27.859 106.894 28.9378 106.573 29.856C105.517 32.7024 104.071 35.2733 102.234 37.5687C100.398 39.8182 98.2632 41.7464 95.83 43.3532C95.8759 44.0878 95.9218 44.8452 95.9677 45.6257C96.0136 46.4062 96.0366 47.1866 96.0366 47.9671C96.0366 50.3543 95.807 52.7416 95.3479 55.1288C94.9348 57.562 94.1543 59.6509 93.0066 61.3954C91.8589 63.1858 90.1603 64.3565 87.9107 64.9074C87.4516 65.0451 86.9007 65.114 86.258 65.114ZM91.4916 10.9186C91.813 10.5513 92.2261 9.93157 92.7311 9.0593C93.2821 8.14113 93.7641 7.17704 94.1773 6.16705C94.5905 5.15705 94.797 4.33069 94.797 3.68797C94.797 3.41252 94.7741 3.22888 94.7282 3.13706C94.6823 2.99934 94.6134 2.86161 94.5216 2.72388C94.4298 2.58616 94.292 2.51729 94.1084 2.51729C93.833 2.51729 93.5346 2.72388 93.2132 3.13706C92.9377 3.50433 92.7541 3.82569 92.6623 4.10115C92.2491 4.97342 91.9507 6.09818 91.7671 7.47545C91.6293 8.80681 91.5375 9.95453 91.4916 10.9186ZM77.9255 34.1944C79.4405 34.1944 80.8867 33.8501 82.2639 33.1614C83.6871 32.4269 84.9955 31.5317 86.1891 30.4758C87.3828 29.4199 88.4157 28.4099 89.288 27.4458C90.2062 26.4358 90.8948 25.6554 91.3539 25.1044C91.1243 23.1304 90.8948 21.1792 90.6652 19.2511C90.4816 17.277 90.3209 15.3029 90.1832 13.3288C89.0814 14.5225 87.9566 15.6931 86.8089 16.8409C85.6612 17.9886 84.5594 19.1822 83.5035 20.4217C82.3098 21.799 81.1851 23.2681 80.1292 24.829C79.1192 26.344 78.178 27.9278 77.3058 29.5806C76.9385 30.2233 76.5942 30.889 76.2728 31.5776C75.9515 32.2662 75.6301 32.9778 75.3087 33.7124C76.1351 34.0337 77.0074 34.1944 77.9255 34.1944ZM95.6234 42.3203C97.7811 40.943 99.6634 39.3362 101.27 37.4998C102.923 35.6176 104.208 33.4139 105.127 30.889C105.54 29.7412 105.838 28.7083 106.022 27.7901C106.205 26.826 106.297 25.9538 106.297 25.1733C106.297 23.337 105.861 21.9597 104.989 21.0415C104.117 20.1233 102.992 19.6642 101.615 19.6642C100.375 19.6642 98.9977 20.0545 97.4827 20.8349C95.9677 21.5695 94.4527 22.6942 92.9377 24.2092C93.3968 27.2392 93.9018 30.2692 94.4527 33.2992C95.0495 36.3292 95.4398 39.3362 95.6234 42.3203ZM82.4017 47.1407C83.1821 47.1407 83.9396 47.0948 84.6741 47.003C85.4546 46.8652 86.1432 46.7275 86.74 46.5898C89.0355 46.0389 91.1702 45.2125 93.1443 44.1107C93.0984 41.0807 92.8918 38.0507 92.5246 35.0208C92.2032 31.9449 91.8589 28.869 91.4916 25.7931C90.9866 26.6653 90.275 27.6753 89.3568 28.8231C88.4387 29.9249 87.3598 31.0037 86.1203 32.0596C84.8807 33.0696 83.5264 33.9189 82.0573 34.6076C80.6342 35.2962 79.1421 35.6405 77.5812 35.6405C76.663 35.6405 75.7449 35.5028 74.8267 35.2273C74.6431 35.8701 74.4594 36.5817 74.2758 37.3621C74.1381 38.1426 74.0692 38.923 74.0692 39.7035C74.0692 40.6675 74.2069 41.6316 74.4824 42.5957C75.1251 44.3403 76.204 45.5339 77.719 46.1766C79.2799 46.8193 80.8408 47.1407 82.4017 47.1407Z" fill="#FFA55C"/>
<path d="M13.9086 36.7915C13.9086 35.3572 13.8161 34.1659 13.631 33.2175C13.4691 32.269 13.2378 31.7948 12.9371 31.7948C12.752 31.7948 12.5785 31.9336 12.4166 32.2112C12.2546 32.4657 12.1158 32.8358 12.0002 33.3216C11.9077 33.7842 11.8267 34.3394 11.7573 34.9871C11.711 35.6117 11.6879 36.2941 11.6879 37.0344C11.6879 38.3529 11.7804 39.7756 11.9655 41.3023C12.1505 42.8059 12.4744 44.2633 12.9371 45.6744C13.2609 44.1939 13.5038 42.6787 13.6657 41.1288C13.8277 39.5558 13.9086 38.11 13.9086 36.7915ZM28.4474 21.0382C28.4474 21.1538 28.4012 21.2464 28.3086 21.3158C28.2161 21.3852 28.1005 21.4661 27.9617 21.5587C27.2677 21.9751 26.7009 22.5534 26.2614 23.2936C25.8219 24.0339 25.4633 24.8435 25.1857 25.7225C24.9313 26.6016 24.7578 27.5037 24.6653 28.429C24.5727 29.3312 24.5265 30.164 24.5265 30.9274C24.5265 31.4594 24.5496 32.1187 24.5959 32.9052C24.6653 33.6686 24.7347 34.5129 24.8041 35.4382C24.8966 36.3635 24.966 37.3466 25.0123 38.3876C25.0817 39.4054 25.1164 40.4464 25.1164 41.5105C25.1164 43.0141 25.0238 44.4715 24.8388 45.8826C24.6768 47.2937 24.3414 48.5544 23.8325 49.6647C23.3467 50.7751 22.6643 51.6657 21.7853 52.3366C20.9062 53.0074 19.7612 53.3428 18.3501 53.3428C17.7024 53.3428 17.0893 53.2156 16.511 52.9611C15.9559 52.7298 15.4354 52.3944 14.9496 51.9549C14.4869 51.5153 14.059 51.0064 13.6657 50.4281C13.2956 49.8498 12.9602 49.2137 12.6595 48.5197C12.3587 49.3293 12.0002 50.0811 11.5838 50.7751C11.1905 51.4691 10.751 52.0705 10.2652 52.5794C9.77945 53.0884 9.24741 53.4816 8.66909 53.7592C8.09078 54.0368 7.47776 54.1756 6.83005 54.1756C5.83535 54.1756 4.99101 53.9211 4.29704 53.4122C3.62619 52.9033 3.07101 52.2325 2.63149 51.3997C2.19197 50.59 1.84498 49.6647 1.59052 48.6238C1.3592 47.5597 1.1857 46.484 1.07004 45.3968C0.954379 44.2864 0.873415 43.2108 0.827149 42.1698C0.804017 41.1057 0.780884 40.1688 0.757752 39.3592C0.711487 37.9018 0.734619 36.5254 0.827149 35.23C0.942812 33.9115 1.07004 32.7317 1.20884 31.6907C1.34763 30.6266 1.48643 29.7129 1.62522 28.9495C1.76402 28.1861 1.85655 27.6194 1.90281 27.2493C1.92595 27.1105 2.06474 27.018 2.3192 26.9717C2.59679 26.9254 2.83968 26.9023 3.04788 26.9023C3.2098 26.9023 3.3486 26.9254 3.46426 26.9717C3.57993 26.9948 3.63776 27.0642 3.63776 27.1799C3.63776 27.3187 3.57993 27.5616 3.46426 27.9086C3.3486 28.2324 3.17511 28.857 2.94378 29.7823C2.85125 30.1987 2.74715 30.8001 2.63149 31.5866C2.53896 32.35 2.44643 33.2175 2.3539 34.1891C2.2845 35.1606 2.22667 36.2016 2.18041 37.3119C2.13414 38.3992 2.11101 39.4633 2.11101 40.5042C2.11101 41.3139 2.14571 42.2045 2.2151 43.1761C2.2845 44.1245 2.40016 45.0729 2.56209 46.0214C2.72402 46.9467 2.94378 47.8488 3.22137 48.7279C3.49896 49.6069 3.83438 50.3819 4.22764 51.0527C4.64402 51.7235 5.12981 52.2556 5.68499 52.6488C6.24017 53.0652 6.88788 53.2734 7.62813 53.2734C8.18331 53.2734 8.69222 53.1346 9.15488 52.857C9.61753 52.5794 10.0455 52.1862 10.4387 51.6773C10.832 51.1915 11.179 50.6132 11.4797 49.9423C11.8036 49.2715 12.0927 48.5428 12.3472 47.7563C11.8151 46.299 11.4219 44.7491 11.1674 43.1067C10.913 41.4642 10.7857 39.9491 10.7857 38.5611C10.7857 37.5433 10.8204 36.537 10.8898 35.5423C10.9823 34.5476 11.1096 33.657 11.2715 32.8705C11.4334 32.084 11.6416 31.4478 11.8961 30.9621C12.1505 30.4763 12.4513 30.2334 12.7983 30.2334C13.0758 30.2334 13.3187 30.4069 13.5269 30.7539C13.7583 31.1009 13.9433 31.5751 14.0821 32.1765C14.244 32.778 14.3597 33.4951 14.4291 34.3278C14.5216 35.1375 14.5679 36.0165 14.5679 36.965C14.5679 38.4917 14.4638 40.0994 14.2556 41.7881C14.0474 43.4536 13.7236 45.0845 13.284 46.6806C13.5848 47.4903 13.9318 48.2421 14.325 48.9361C14.7183 49.6069 15.1578 50.1968 15.6436 50.7057C16.1525 51.2146 16.7077 51.6079 17.3091 51.8855C17.9337 52.1862 18.6161 52.3366 19.3563 52.3366C20.3742 52.3366 21.2069 52.0821 21.8547 51.5732C22.5024 51.0874 23.0113 50.4166 23.3814 49.5606C23.7515 48.6816 24.006 47.6753 24.1448 46.5418C24.2836 45.3852 24.353 44.1476 24.353 42.8291C24.353 41.6493 24.3067 40.4348 24.2142 39.1857C24.1448 37.9365 24.0638 36.6989 23.9713 35.4729C23.8788 34.2238 23.7862 33.0209 23.6937 31.8642C23.6243 30.6845 23.5896 29.5972 23.5896 28.6025C23.5896 27.8854 23.6937 27.0527 23.9019 26.1042C24.1332 25.1558 24.4339 24.2652 24.8041 23.4324C25.1973 22.5765 25.6368 21.8594 26.1226 21.2811C26.6315 20.6796 27.1636 20.3789 27.7188 20.3789C27.8807 20.3789 28.0426 20.4599 28.2046 20.6218C28.3665 20.7606 28.4474 20.8994 28.4474 21.0382Z" fill="#1F1711"/>
<path d="M39.2819 44.0782C39.2819 43.7312 39.2241 43.4536 39.1084 43.2455C38.9927 43.0141 38.8077 42.8985 38.5532 42.8985C38.16 42.8985 37.8592 43.0951 37.651 43.4883C37.4428 43.8585 37.3503 44.3327 37.3735 44.911C37.4428 46.137 37.6626 47.1664 38.0327 47.9992C38.426 47.4671 38.7267 46.8657 38.9349 46.1949C39.1662 45.524 39.2819 44.8185 39.2819 44.0782ZM48.6506 44.0435C48.4886 44.3905 48.3152 44.7491 48.1301 45.1192C47.945 45.4662 47.7368 45.8132 47.5055 46.1602C46.3258 47.9182 45.1344 49.2252 43.9315 50.0811C42.7286 50.937 41.6067 51.365 40.5657 51.365C39.2472 51.365 38.2409 50.7404 37.5469 49.4912C36.7373 50.3009 35.8236 50.9139 34.8057 51.3303C33.811 51.7467 32.8279 51.9549 31.8563 51.9549C31.278 51.9549 30.7228 51.8739 30.1908 51.712C29.6819 51.55 29.2424 51.3072 28.8722 50.9833C28.479 50.6363 28.1667 50.2084 27.9354 49.6994C27.704 49.1674 27.5884 48.5544 27.5884 47.8604C27.5884 47.0276 27.785 46.1833 28.1783 45.3274C28.5484 44.4483 29.0689 43.6618 29.7397 42.9679C30.4337 42.2508 31.2433 41.6609 32.1686 41.1982C33.0939 40.7356 34.1002 40.5042 35.1874 40.5042C36.0665 40.5042 36.7489 40.6315 37.2347 40.8859C37.7204 41.1173 37.9633 41.337 37.9633 41.5452C37.9633 41.6377 37.9171 41.7071 37.8245 41.7534C37.732 41.7997 37.651 41.8228 37.5816 41.8228C37.5585 41.7997 37.5354 41.7881 37.5122 41.7881H37.4775C37.2 41.5336 36.8877 41.337 36.5407 41.1982C36.1937 41.0363 35.6848 40.9553 35.0139 40.9553C34.1118 40.9553 33.2906 41.152 32.5503 41.5452C31.8332 41.9153 31.2202 42.4127 30.7113 43.0373C30.2024 43.6387 29.8091 44.3096 29.5315 45.0498C29.2539 45.79 29.1151 46.5187 29.1151 47.2358C29.1151 48.6238 29.439 49.63 30.0867 50.2546C30.7344 50.8792 31.544 51.1915 32.5156 51.1915C33.3021 51.1915 34.1233 50.9949 34.9792 50.6016C35.8351 50.2084 36.5985 49.6532 37.2694 48.9361C36.8992 48.1033 36.7142 47.0161 36.7142 45.6744C36.7142 44.7953 36.8761 44.032 37.2 43.3843C37.5238 42.7365 37.9865 42.4127 38.5879 42.4127C39.4207 42.4127 39.8371 42.8985 39.8371 43.87C39.8371 44.8416 39.6983 45.7206 39.4207 46.5071C39.1431 47.2705 38.773 47.9645 38.3103 48.5891C38.958 49.792 39.8602 50.3934 41.0168 50.3934C41.8959 50.3934 42.8327 50.0233 43.8274 49.2831C44.8453 48.5428 45.84 47.4671 46.8115 46.0561C47.0429 45.7091 47.2511 45.3505 47.4361 44.9804C47.6212 44.6103 47.8062 44.2402 47.9913 43.87L48.6506 44.0435Z" fill="#1F1711"/>
<path d="M53.4702 28.5331C53.4702 27.2146 53.2504 26.162 52.8109 25.3755C52.3945 24.5659 51.689 24.1611 50.6943 24.1611C50.3473 24.1611 50.0234 24.2767 49.7227 24.5081C49.4451 24.7163 49.2022 25.0054 48.994 25.3755C48.7859 25.7457 48.6239 26.1736 48.5083 26.6594C48.3926 27.1452 48.3348 27.6657 48.3348 28.2208C48.3348 29.7476 48.3463 31.1356 48.3695 32.3847C48.3926 33.6339 48.4157 34.8136 48.4389 35.924C48.4851 37.0344 48.5314 38.11 48.5777 39.151C48.6239 40.192 48.6702 41.2561 48.7165 42.3433C49.3873 41.4411 50.0119 40.4117 50.5902 39.2551C51.1685 38.0753 51.6659 36.8724 52.0822 35.6464C52.5218 34.3972 52.8572 33.1597 53.0885 31.9336C53.343 30.7076 53.4702 29.5741 53.4702 28.5331ZM66.0312 44.0435C65.8693 44.3905 65.6958 44.7491 65.5107 45.1192C65.3488 45.4893 65.1406 45.8363 64.8861 46.1602C63.6138 47.9645 62.168 49.3872 60.5488 50.4281C58.9295 51.446 57.3218 51.9549 55.7256 51.9549C54.7309 51.9549 53.7825 51.7235 52.8803 51.2609C51.9781 50.8214 51.1801 50.1043 50.4861 49.1096C50.3936 48.9939 50.3473 48.8898 50.3473 48.7973C50.3473 48.5891 50.4861 48.485 50.7637 48.485C50.7868 48.485 50.8678 48.5081 51.0066 48.5544C51.1916 48.5544 51.3998 48.6238 51.6312 48.7626C51.8856 48.8782 52.2442 48.9361 52.7068 48.9361C53.4239 48.9361 54.0948 48.8088 54.7194 48.5544C55.3439 48.2999 55.876 47.9761 56.3155 47.5828C56.7782 47.1664 57.1367 46.7038 57.3912 46.1949C57.6456 45.6628 57.7729 45.1192 57.7729 44.564C57.7729 43.87 57.5878 43.2686 57.2177 42.7597C56.8707 42.2508 56.2692 41.9963 55.4133 41.9963C54.5343 41.9963 53.7247 42.3086 52.9844 42.9332C52.2442 43.5346 51.5733 44.2749 50.9719 45.1539C50.3936 46.0098 49.8962 46.9235 49.4798 47.8951C49.0634 48.8435 48.7512 49.6763 48.543 50.3934C48.4273 50.7867 48.3232 51.0296 48.2307 51.1221C48.1381 51.2146 48.034 51.2609 47.9184 51.2609C47.6639 51.2609 47.5483 51.018 47.5714 50.5322C47.5714 50.324 47.583 50.0696 47.6061 49.7688C47.6292 49.4681 47.6524 49.1443 47.6755 48.7973C47.6755 48.4503 47.6871 48.1033 47.7102 47.7563C47.7333 47.3862 47.7449 47.0508 47.7449 46.75C47.7449 45.7091 47.7218 44.5177 47.6755 43.1761C47.6292 41.8112 47.5714 40.4117 47.502 38.9775C47.4326 37.5201 47.3748 36.0744 47.3285 34.6401C47.2822 33.2059 47.2591 31.8874 47.2591 30.6845C47.2591 29.736 47.3285 28.8223 47.4673 27.9433C47.6061 27.0411 47.8258 26.2546 48.1266 25.5837C48.4273 24.8898 48.809 24.3461 49.2716 23.9529C49.7343 23.5365 50.2779 23.3283 50.9025 23.3283C51.5502 23.3283 52.0938 23.444 52.5333 23.6753C52.996 23.8835 53.3661 24.1958 53.6437 24.6122C53.9213 25.0054 54.1179 25.4912 54.2336 26.0695C54.3724 26.6247 54.4418 27.2377 54.4418 27.9086C54.4418 29.0652 54.2798 30.3375 53.956 31.7254C53.6321 33.0903 53.2042 34.4666 52.6721 35.8546C52.1401 37.2426 51.5271 38.5842 50.8331 39.8797C50.1622 41.152 49.4683 42.2623 48.7512 43.2108C48.7974 43.9047 48.8206 44.6218 48.8206 45.3621C48.8437 46.1023 48.8784 46.8888 48.9246 47.7216C49.503 46.4724 50.1391 45.3968 50.8331 44.4946C51.1338 44.1014 51.4692 43.7197 51.8393 43.3496C52.2326 42.9563 52.6374 42.6093 53.0538 42.3086C53.4933 42.0079 53.956 41.765 54.4418 41.5799C54.9507 41.3948 55.4827 41.3023 56.0379 41.3023C56.917 41.3023 57.6803 41.5221 58.328 41.9616C58.9758 42.4011 59.2996 43.1067 59.2996 44.0782C59.2996 45.0035 59.0683 45.79 58.6056 46.4377C58.1661 47.0855 57.6109 47.6291 56.9401 48.0686C56.2692 48.485 55.5521 48.7973 54.7888 49.0055C54.0254 49.2137 53.3314 49.3409 52.7068 49.3872C52.6606 49.3872 52.6374 49.3987 52.6374 49.4219C52.6374 49.4681 52.6721 49.5375 52.7415 49.63C53.2042 50.1621 53.7247 50.5438 54.303 50.7751C54.8813 51.0064 55.4827 51.1221 56.1073 51.1221C56.8707 51.1221 57.6456 50.9833 58.4321 50.7057C59.2186 50.405 59.9705 50.0233 60.6876 49.5606C61.4047 49.0749 62.064 48.5312 62.6654 47.9298C63.29 47.3052 63.7989 46.6806 64.1921 46.0561C64.4235 45.7091 64.6317 45.3505 64.8167 44.9804C65.0018 44.6103 65.1868 44.2402 65.3719 43.87L66.0312 44.0435Z" fill="#1F1711"/>
<path d="M70.9229 41.8922C70.9229 41.2676 70.761 40.7587 70.4371 40.3654C70.1364 39.9491 69.6391 39.7409 68.9451 39.7409C68.575 39.7409 68.2395 39.8565 67.9388 40.0879C67.6381 40.3192 67.3836 40.6315 67.1754 41.0247C66.9672 41.3948 66.8053 41.8344 66.6896 42.3433C66.574 42.8522 66.5162 43.3843 66.5162 43.9394C66.5162 44.8185 66.6087 45.605 66.7937 46.299C67.0019 46.9698 67.2911 47.5597 67.6612 48.0686C68.147 47.6753 68.5865 47.2243 68.9798 46.7153C69.373 46.2064 69.7084 45.6744 69.986 45.1192C70.2868 44.564 70.5181 44.0088 70.68 43.4536C70.8419 42.8985 70.9229 42.378 70.9229 41.8922ZM79.7017 44.0435C79.5398 44.3905 79.3663 44.7491 79.1812 45.1192C79.0193 45.4662 78.8111 45.8132 78.5567 46.1602C77.4232 47.7794 76.1277 49.0055 74.6704 49.8382C73.2362 50.6479 71.8598 51.0527 70.5412 51.0527C69.801 51.0527 69.107 50.9255 68.4593 50.671C67.8347 50.4166 67.2911 50.0349 66.8284 49.5259C66.3658 49.017 65.9957 48.3809 65.7181 47.6175C65.4405 46.8541 65.3017 45.952 65.3017 44.911C65.3017 44.217 65.4058 43.523 65.614 42.8291C65.8222 42.1351 66.0998 41.5105 66.4468 40.9553C66.8169 40.4001 67.2333 39.9491 67.6959 39.6021C68.1817 39.2551 68.6906 39.0816 69.2227 39.0816C70.0786 39.0816 70.7032 39.336 71.0964 39.845C71.4897 40.3308 71.6863 40.9553 71.6863 41.7187C71.6863 42.7597 71.3624 43.8932 70.7147 45.1192C70.0901 46.3221 69.188 47.444 68.0082 48.485C68.8872 49.4797 70.0207 49.977 71.4087 49.977C72.4497 49.977 73.5369 49.6647 74.6704 49.0402C75.8039 48.3925 76.868 47.3978 77.8627 46.0561C78.1171 45.7322 78.3253 45.3852 78.4873 45.0151C78.6723 44.6218 78.8574 44.2402 79.0424 43.87L79.7017 44.0435Z" fill="#1F1711"/>
<path d="M109.763 35.2994C108.907 35.2994 108.086 35.3919 107.3 35.577C106.536 35.7621 105.854 35.9818 105.253 36.2363C104.674 36.4907 104.2 36.7568 103.83 37.0344C103.483 37.3119 103.309 37.5548 103.309 37.763C103.309 38.0406 103.633 38.1794 104.281 38.1794C105.391 38.1794 106.444 37.9134 107.439 37.3813C108.456 36.8493 109.37 36.1553 110.18 35.2994H109.763ZM119.861 40.5042C119.861 41.6377 119.537 42.8638 118.889 44.1823C118.265 45.5009 117.397 46.8079 116.287 48.1033C115.176 49.3987 113.858 50.6479 112.331 51.8508C110.804 53.0537 109.162 54.1178 107.404 55.0431C105.646 55.9684 103.795 56.697 101.852 57.2291C99.9089 57.7843 97.9658 58.0619 96.0227 58.0619C95.6988 58.0619 95.3402 58.0503 94.947 58.0272C94.5769 58.004 94.2299 57.9462 93.906 57.8537C93.5822 57.7843 93.3046 57.657 93.0733 57.472C92.8419 57.3101 92.7263 57.0787 92.7263 56.778C92.7263 56.3616 92.9345 55.9568 93.3508 55.5635C93.7672 55.1934 94.2993 54.8464 94.947 54.5226C95.5947 54.1987 96.3003 53.9096 97.0636 53.6551C97.827 53.4007 98.5557 53.1809 99.2496 52.9958C99.9668 52.8108 100.591 52.6604 101.123 52.5447C101.655 52.4522 102.014 52.406 102.199 52.406C102.338 52.406 102.442 52.4407 102.511 52.5101C102.581 52.5794 102.615 52.6488 102.615 52.7182C102.615 52.8339 102.558 52.8917 102.442 52.8917H101.991C101.389 52.8917 100.626 53.0074 99.7007 53.2387C98.7754 53.4701 97.8733 53.7592 96.9942 54.1062C96.1152 54.4532 95.3634 54.8349 94.7388 55.2513C94.1142 55.6908 93.8019 56.0956 93.8019 56.4657C93.8019 56.7202 93.8829 56.9168 94.0448 57.0556C94.2299 57.2175 94.4496 57.3448 94.7041 57.4373C94.9586 57.5298 95.2246 57.5876 95.5022 57.6108C95.7798 57.657 96.0227 57.6802 96.2308 57.6802C97.8733 57.6802 99.5504 57.4026 101.262 56.8474C102.997 56.2922 104.674 55.552 106.294 54.6267C107.936 53.7245 109.474 52.672 110.908 51.4691C112.366 50.2893 113.638 49.0633 114.725 47.791C115.813 46.4956 116.668 45.2117 117.293 43.9394C117.918 42.644 118.23 41.4411 118.23 40.3308C118.23 38.9659 117.663 37.8324 116.53 36.9303C115.419 36.005 113.58 35.4729 111.013 35.3341C109.972 36.3057 108.827 37.0922 107.577 37.6936C106.351 38.2951 105.102 38.5958 103.83 38.5958C102.928 38.5958 102.477 38.376 102.477 37.9365C102.477 37.6589 102.662 37.3466 103.032 36.9997C103.425 36.6295 103.957 36.2825 104.628 35.9587C105.322 35.6348 106.143 35.3688 107.092 35.1606C108.04 34.9293 109.081 34.8136 110.214 34.8136H110.631C111.394 33.9115 112.007 32.9283 112.47 31.8642C112.933 30.777 113.164 29.7129 113.164 28.6719C113.164 27.978 113.037 27.3187 112.782 26.6941C112.551 26.0464 112.158 25.4912 111.602 25.0286C111.07 24.5659 110.365 24.1958 109.486 23.9182C108.63 23.6406 107.589 23.5018 106.363 23.5018C105.53 23.5018 104.374 23.6175 102.893 23.8488C101.436 24.0801 99.8511 24.4387 98.1393 24.9245C96.4506 25.3871 94.7272 25.977 92.9692 26.6941C91.2111 27.4112 89.6149 28.244 88.1807 29.1924C86.7465 30.1409 85.5783 31.2165 84.6761 32.4194C83.774 33.6223 83.3229 34.9524 83.3229 36.4098C83.3229 36.5948 83.2882 36.7568 83.2188 36.8956C83.1494 37.0112 83.08 37.0691 83.0106 37.0691C82.918 37.0691 82.8487 36.9765 82.8024 36.7915C82.733 36.5833 82.6983 36.2479 82.6983 35.7852C82.9065 34.2816 83.5195 32.9168 84.5373 31.6907C85.5552 30.4647 86.8159 29.3775 88.3195 28.429C89.8 27.4575 91.4308 26.6247 93.212 25.9307C94.9933 25.2367 96.7513 24.67 98.4863 24.2305C100.244 23.7678 101.875 23.4324 103.379 23.2242C104.906 22.9929 106.155 22.8772 107.126 22.8772C108.537 22.8772 109.729 23.016 110.7 23.2936C111.695 23.5481 112.505 23.9066 113.129 24.3693C113.754 24.8088 114.205 25.3408 114.482 25.9654C114.76 26.59 114.899 27.2493 114.899 27.9433C114.899 29.0768 114.587 30.2565 113.962 31.4825C113.361 32.6854 112.539 33.8074 111.498 34.8483C112.979 34.9177 114.251 35.1144 115.315 35.4382C116.379 35.7389 117.247 36.1438 117.918 36.6527C118.588 37.1385 119.074 37.7168 119.375 38.3876C119.699 39.0353 119.861 39.7409 119.861 40.5042ZM101.47 49.63C101.47 49.9539 101.447 50.1852 101.401 50.324C101.355 50.4628 101.227 50.5322 101.019 50.5322C100.557 50.5785 100.325 50.1158 100.325 49.1443C100.302 45.952 100.267 43.0373 100.221 40.4001C100.198 37.763 100.163 35.4845 100.117 33.5645C100.094 31.6213 100.071 30.083 100.048 28.9495C100.025 27.816 100.013 27.1683 100.013 27.0064C100.013 26.8213 100.071 26.6941 100.187 26.6247C100.302 26.5553 100.441 26.4975 100.603 26.4512C100.788 26.4512 100.927 26.509 101.019 26.6247C101.135 26.7404 101.193 26.8792 101.193 27.0411C101.193 28.8917 101.204 30.8001 101.227 32.7664C101.251 34.7095 101.274 36.6527 101.297 38.5958C101.343 40.5389 101.378 42.4474 101.401 44.3211C101.447 46.1949 101.47 47.9645 101.47 49.63Z" fill="#1F1711"/>
<path d="M133.348 44.0782C133.348 43.7312 133.29 43.4536 133.175 43.2455C133.059 43.0141 132.874 42.8985 132.62 42.8985C132.226 42.8985 131.926 43.0951 131.717 43.4883C131.509 43.8585 131.417 44.3327 131.44 44.911C131.509 46.137 131.729 47.1664 132.099 47.9992C132.492 47.4671 132.793 46.8657 133.001 46.1949C133.233 45.524 133.348 44.8185 133.348 44.0782ZM142.717 44.0435C142.555 44.3905 142.382 44.7491 142.197 45.1192C142.011 45.4662 141.803 45.8132 141.572 46.1602C140.392 47.9182 139.201 49.2252 137.998 50.0811C136.795 50.937 135.673 51.365 134.632 51.365C133.314 51.365 132.307 50.7404 131.613 49.4912C130.804 50.3009 129.89 50.9139 128.872 51.3303C127.877 51.7467 126.894 51.9549 125.923 51.9549C125.344 51.9549 124.789 51.8739 124.257 51.712C123.748 51.55 123.309 51.3072 122.939 50.9833C122.545 50.6363 122.233 50.2084 122.002 49.6994C121.77 49.1674 121.655 48.5544 121.655 47.8604C121.655 47.0276 121.851 46.1833 122.245 45.3274C122.615 44.4483 123.135 43.6618 123.806 42.9679C124.5 42.2508 125.31 41.6609 126.235 41.1982C127.16 40.7356 128.167 40.5042 129.254 40.5042C130.133 40.5042 130.815 40.6315 131.301 40.8859C131.787 41.1173 132.03 41.337 132.03 41.5452C132.03 41.6377 131.984 41.7071 131.891 41.7534C131.798 41.7997 131.717 41.8228 131.648 41.8228C131.625 41.7997 131.602 41.7881 131.579 41.7881H131.544C131.266 41.5336 130.954 41.337 130.607 41.1982C130.26 41.0363 129.751 40.9553 129.08 40.9553C128.178 40.9553 127.357 41.152 126.617 41.5452C125.9 41.9153 125.287 42.4127 124.778 43.0373C124.269 43.6387 123.876 44.3096 123.598 45.0498C123.32 45.79 123.182 46.5187 123.182 47.2358C123.182 48.6238 123.505 49.63 124.153 50.2546C124.801 50.8792 125.61 51.1915 126.582 51.1915C127.369 51.1915 128.19 50.9949 129.046 50.6016C129.902 50.2084 130.665 49.6532 131.336 48.9361C130.966 48.1033 130.781 47.0161 130.781 45.6744C130.781 44.7953 130.943 44.032 131.266 43.3843C131.59 42.7365 132.053 42.4127 132.654 42.4127C133.487 42.4127 133.904 42.8985 133.904 43.87C133.904 44.8416 133.765 45.7206 133.487 46.5071C133.21 47.2705 132.839 47.9645 132.377 48.5891C133.024 49.792 133.927 50.3934 135.083 50.3934C135.962 50.3934 136.899 50.0233 137.894 49.2831C138.912 48.5428 139.906 47.4671 140.878 46.0561C141.109 45.7091 141.317 45.3505 141.503 44.9804C141.688 44.6103 141.873 44.2402 142.058 43.87L142.717 44.0435Z" fill="#1F1711"/>
<path d="M147.537 28.5331C147.537 27.2146 147.317 26.162 146.877 25.3755C146.461 24.5659 145.755 24.1611 144.761 24.1611C144.414 24.1611 144.09 24.2767 143.789 24.5081C143.512 24.7163 143.269 25.0054 143.06 25.3755C142.852 25.7457 142.69 26.1736 142.575 26.6594C142.459 27.1452 142.401 27.6657 142.401 28.2208C142.401 29.7476 142.413 31.1356 142.436 32.3847C142.459 33.6339 142.482 34.8136 142.505 35.924C142.552 37.0344 142.598 38.11 142.644 39.151C142.69 40.192 142.737 41.2561 142.783 42.3433C143.454 41.4411 144.078 40.4117 144.657 39.2551C145.235 38.0753 145.732 36.8724 146.149 35.6464C146.588 34.3972 146.924 33.1597 147.155 31.9336C147.409 30.7076 147.537 29.5741 147.537 28.5331ZM160.098 44.0435C159.936 44.3905 159.762 44.7491 159.577 45.1192C159.415 45.4893 159.207 45.8363 158.953 46.1602C157.68 47.9645 156.234 49.3872 154.615 50.4281C152.996 51.446 151.388 51.9549 149.792 51.9549C148.797 51.9549 147.849 51.7235 146.947 51.2609C146.045 50.8214 145.247 50.1043 144.553 49.1096C144.46 48.9939 144.414 48.8898 144.414 48.7973C144.414 48.5891 144.553 48.485 144.83 48.485C144.853 48.485 144.934 48.5081 145.073 48.5544C145.258 48.5544 145.466 48.6238 145.698 48.7626C145.952 48.8782 146.311 48.9361 146.773 48.9361C147.49 48.9361 148.161 48.8088 148.786 48.5544C149.41 48.2999 149.942 47.9761 150.382 47.5828C150.845 47.1664 151.203 46.7038 151.458 46.1949C151.712 45.6628 151.839 45.1192 151.839 44.564C151.839 43.87 151.654 43.2686 151.284 42.7597C150.937 42.2508 150.336 41.9963 149.48 41.9963C148.601 41.9963 147.791 42.3086 147.051 42.9332C146.311 43.5346 145.64 44.2749 145.038 45.1539C144.46 46.0098 143.963 46.9235 143.546 47.8951C143.13 48.8435 142.818 49.6763 142.609 50.3934C142.494 50.7867 142.39 51.0296 142.297 51.1221C142.205 51.2146 142.1 51.2609 141.985 51.2609C141.73 51.2609 141.615 51.018 141.638 50.5322C141.638 50.324 141.649 50.0696 141.673 49.7688C141.696 49.4681 141.719 49.1443 141.742 48.7973C141.742 48.4503 141.753 48.1033 141.777 47.7563C141.8 47.3862 141.811 47.0508 141.811 46.75C141.811 45.7091 141.788 44.5177 141.742 43.1761C141.696 41.8112 141.638 40.4117 141.568 38.9775C141.499 37.5201 141.441 36.0744 141.395 34.6401C141.349 33.2059 141.326 31.8874 141.326 30.6845C141.326 29.736 141.395 28.8223 141.534 27.9433C141.673 27.0411 141.892 26.2546 142.193 25.5837C142.494 24.8898 142.875 24.3461 143.338 23.9529C143.801 23.5365 144.344 23.3283 144.969 23.3283C145.617 23.3283 146.16 23.444 146.6 23.6753C147.062 23.8835 147.433 24.1958 147.71 24.6122C147.988 25.0054 148.184 25.4912 148.3 26.0695C148.439 26.6247 148.508 27.2377 148.508 27.9086C148.508 29.0652 148.346 30.3375 148.022 31.7254C147.699 33.0903 147.271 34.4666 146.739 35.8546C146.207 37.2426 145.593 38.5842 144.9 39.8797C144.229 41.152 143.535 42.2623 142.818 43.2108C142.864 43.9047 142.887 44.6218 142.887 45.3621C142.91 46.1023 142.945 46.8888 142.991 47.7216C143.569 46.4724 144.206 45.3968 144.9 44.4946C145.2 44.1014 145.536 43.7197 145.906 43.3496C146.299 42.9563 146.704 42.6093 147.12 42.3086C147.56 42.0079 148.022 41.765 148.508 41.5799C149.017 41.3948 149.549 41.3023 150.104 41.3023C150.983 41.3023 151.747 41.5221 152.394 41.9616C153.042 42.4011 153.366 43.1067 153.366 44.0782C153.366 45.0035 153.135 45.79 152.672 46.4377C152.233 47.0855 151.677 47.6291 151.007 48.0686C150.336 48.485 149.619 48.7973 148.855 49.0055C148.092 49.2137 147.398 49.3409 146.773 49.3872C146.727 49.3872 146.704 49.3987 146.704 49.4219C146.704 49.4681 146.739 49.5375 146.808 49.63C147.271 50.1621 147.791 50.5438 148.369 50.7751C148.948 51.0064 149.549 51.1221 150.174 51.1221C150.937 51.1221 151.712 50.9833 152.499 50.7057C153.285 50.405 154.037 50.0233 154.754 49.5606C155.471 49.0749 156.13 48.5312 156.732 47.9298C157.356 47.3052 157.865 46.6806 158.259 46.0561C158.49 45.7091 158.698 45.3505 158.883 44.9804C159.068 44.6103 159.253 44.2402 159.438 43.87L160.098 44.0435Z" fill="#1F1711"/>
<path d="M164.989 41.8922C164.989 41.2676 164.827 40.7587 164.504 40.3654C164.203 39.9491 163.705 39.7409 163.012 39.7409C162.641 39.7409 162.306 39.8565 162.005 40.0879C161.705 40.3192 161.45 40.6315 161.242 41.0247C161.034 41.3948 160.872 41.8344 160.756 42.3433C160.64 42.8522 160.583 43.3843 160.583 43.9394C160.583 44.8185 160.675 45.605 160.86 46.299C161.068 46.9698 161.358 47.5597 161.728 48.0686C162.213 47.6753 162.653 47.2243 163.046 46.7153C163.439 46.2064 163.775 45.6744 164.052 45.1192C164.353 44.564 164.585 44.0088 164.746 43.4536C164.908 42.8985 164.989 42.378 164.989 41.8922ZM173.768 44.0435C173.606 44.3905 173.433 44.7491 173.248 45.1192C173.086 45.4662 172.878 45.8132 172.623 46.1602C171.49 47.7794 170.194 49.0055 168.737 49.8382C167.303 50.6479 165.926 51.0527 164.608 51.0527C163.867 51.0527 163.173 50.9255 162.526 50.671C161.901 50.4166 161.358 50.0349 160.895 49.5259C160.432 49.017 160.062 48.3809 159.785 47.6175C159.507 46.8541 159.368 45.952 159.368 44.911C159.368 44.217 159.472 43.523 159.68 42.8291C159.889 42.1351 160.166 41.5105 160.513 40.9553C160.883 40.4001 161.3 39.9491 161.762 39.6021C162.248 39.2551 162.757 39.0816 163.289 39.0816C164.145 39.0816 164.77 39.336 165.163 39.845C165.556 40.3308 165.753 40.9553 165.753 41.7187C165.753 42.7597 165.429 43.8932 164.781 45.1192C164.157 46.3221 163.254 47.444 162.075 48.485C162.954 49.4797 164.087 49.977 165.475 49.977C166.516 49.977 167.603 49.6647 168.737 49.0402C169.87 48.3925 170.934 47.3978 171.929 46.0561C172.184 45.7322 172.392 45.3852 172.554 45.0151C172.739 44.6218 172.924 44.2402 173.109 43.87L173.768 44.0435Z" fill="#1F1711"/>
</svg>
