<svg width="241" height="90" viewBox="0 0 241 90" fill="none" xmlns="http://www.w3.org/2000/svg">
<path d="M119.436 89.291C118.038 89.291 116.673 88.9417 115.339 88.2431C114.006 87.5446 113.053 86.4014 112.482 84.8137C112.418 84.6232 112.482 84.4645 112.672 84.3374C112.863 84.2739 113.021 84.401 113.148 84.7185C113.783 85.9251 114.577 86.8142 115.53 87.3858C116.546 87.9574 117.594 88.2431 118.673 88.2431C118.927 88.2431 119.182 88.2114 119.436 88.1479C119.753 88.1479 120.039 88.1161 120.293 88.0526C122.452 87.5446 124.135 86.2744 125.342 84.2422C126.612 82.21 127.501 79.8284 128.009 77.0976C128.581 74.3668 128.93 71.6043 129.057 68.81C129.184 66.0791 129.216 63.7294 129.152 61.7607C127.374 62.7768 125.532 63.6659 123.627 64.428C121.785 65.19 119.848 65.8251 117.816 66.3332C116.864 66.5872 115.752 66.8095 114.482 67C113.275 67.127 111.973 67.1905 110.576 67.1905C108.1 67.1905 105.655 66.746 103.241 65.8569C100.891 64.9043 99.272 63.1261 98.3829 60.5223C98.1289 59.8872 97.9701 59.2521 97.9066 58.6171C97.8431 57.9185 97.8114 57.2517 97.8114 56.6166C97.8114 54.7749 98.0654 52.9967 98.5735 51.282C99.145 49.5038 99.7483 47.9161 100.383 46.519C98.9228 45.6299 97.6209 44.5502 96.4777 43.2801C95.3981 42.0099 94.5725 40.5493 94.0009 38.8981C93.7469 38.136 93.5564 37.3739 93.4294 36.6118C93.3024 35.8498 93.2389 35.1194 93.2389 34.4208C93.2389 31.563 94.0327 28.9592 95.6204 26.6095C97.2081 24.1962 99.1768 22.164 101.527 20.5128C103.876 18.8616 106.194 17.782 108.481 17.2739C108.735 17.2104 109.306 17.1152 110.195 16.9881C111.148 16.8611 112.037 16.7976 112.863 16.7976C113.879 16.7976 114.418 16.9246 114.482 17.1787C114.609 17.4327 114.514 17.5597 114.196 17.5597C113.307 17.5597 112.45 17.5597 111.624 17.5597C110.799 17.5597 109.941 17.655 109.052 17.8455C106.893 18.3535 104.765 19.3697 102.67 20.8938C100.637 22.3545 98.9228 24.1644 97.5256 26.3237C96.1919 28.4829 95.5251 30.8644 95.5251 33.4682C95.5251 34.1668 95.5886 34.8971 95.7156 35.6592C95.8427 36.3578 96.0332 37.0881 96.2872 37.8502C97.2398 40.5175 98.9545 42.7085 101.431 44.4232C103.527 40.4223 105.845 36.9294 108.385 33.9445C110.926 30.8962 113.593 28.0066 116.387 25.2758C119.182 22.4815 122.008 19.5284 124.865 16.4166C124.865 15.845 124.834 15.2417 124.77 14.6066C124.77 13.9716 124.77 13.3365 124.77 12.7014C124.77 11.1772 124.834 9.65307 124.961 8.1289C125.151 6.54122 125.5 5.17582 126.009 4.03269C126.39 3.2071 126.866 2.3815 127.437 1.55591C128.073 0.666809 128.866 0.222259 129.819 0.222259C130.454 0.222259 130.994 0.444535 131.438 0.889087C131.883 1.27013 132.232 1.77818 132.486 2.41326C132.74 2.98482 132.867 3.6834 132.867 4.50899C132.867 5.90615 132.486 7.3033 131.724 8.70046C131.026 10.0976 130.2 11.3995 129.247 12.6061C128.295 13.7493 127.437 14.7654 126.675 15.6545C126.675 18.2583 126.866 20.9256 127.247 23.6564C127.691 26.3237 128.104 28.9592 128.485 31.563C129.946 29.7213 131.661 28.0066 133.629 26.4189C135.662 24.7678 137.853 23.6564 140.202 23.0848C140.964 22.8943 141.79 22.799 142.679 22.799C143.949 22.799 145.156 23.1166 146.299 23.7516C147.506 24.3232 148.395 25.4346 148.966 27.0858C149.347 28.2289 149.538 29.499 149.538 30.8962C149.538 32.5474 149.316 34.2621 148.871 36.0403C148.427 37.755 147.982 39.2474 147.537 40.5175C146.077 44.455 144.076 48.0114 141.536 51.1867C138.996 54.2986 136.043 56.9659 132.677 59.1886C132.74 60.2047 132.804 61.2526 132.867 62.3322C132.931 63.4118 132.963 64.4915 132.963 65.5711C132.963 68.8735 132.645 72.1758 132.01 75.4782C131.438 78.8441 130.359 81.7337 128.771 84.1469C127.183 86.6237 124.834 88.2431 121.722 89.0052C121.087 89.1957 120.325 89.291 119.436 89.291ZM126.675 14.3208C127.12 13.8128 127.691 12.9554 128.39 11.7488C129.152 10.4787 129.819 9.14501 130.391 7.74785C130.962 6.3507 131.248 5.20757 131.248 4.31847C131.248 3.93743 131.216 3.6834 131.153 3.55639C131.089 3.36586 130.994 3.17534 130.867 2.98482C130.74 2.7943 130.549 2.69904 130.295 2.69904C129.914 2.69904 129.501 2.98482 129.057 3.55639C128.676 4.06444 128.422 4.50899 128.295 4.89003C127.723 6.09667 127.31 7.65259 127.056 9.5578C126.866 11.3995 126.739 12.9872 126.675 14.3208ZM107.909 46.519C110.005 46.519 112.005 46.0426 113.91 45.09C115.879 44.0739 117.689 42.8355 119.34 41.3749C120.991 39.9142 122.42 38.5171 123.627 37.1834C124.897 35.7862 125.85 34.7066 126.485 33.9445C126.167 31.2137 125.85 28.5147 125.532 25.8474C125.278 23.1166 125.056 20.3858 124.865 17.655C123.341 19.3062 121.785 20.9256 120.198 22.5133C118.61 24.1009 117.086 25.7521 115.625 27.4668C113.974 29.372 112.418 31.4043 110.957 33.5635C109.56 35.6592 108.258 37.8502 107.052 40.1365C106.544 41.0256 106.067 41.9464 105.623 42.899C105.178 43.8517 104.734 44.836 104.289 45.8521C105.432 46.2967 106.639 46.519 107.909 46.519ZM132.391 57.7597C135.376 55.8545 137.98 53.6318 140.202 51.0915C142.489 48.4877 144.267 45.4393 145.537 41.9464C146.109 40.3588 146.521 38.9299 146.775 37.6597C147.029 36.3261 147.156 35.1194 147.156 34.0398C147.156 31.4995 146.553 29.5943 145.346 28.3242C144.14 27.054 142.584 26.4189 140.679 26.4189C138.964 26.4189 137.059 26.9588 134.963 28.0384C132.867 29.0545 130.772 30.6104 128.676 32.7062C129.311 36.8976 130.009 41.0891 130.772 45.2806C131.597 49.472 132.137 53.6318 132.391 57.7597ZM114.101 64.428C115.181 64.428 116.228 64.3645 117.245 64.2374C118.324 64.0469 119.277 63.8564 120.102 63.6659C123.278 62.9038 126.231 61.7607 128.962 60.2365C128.898 56.045 128.612 51.8536 128.104 47.6621C127.66 43.4071 127.183 39.1521 126.675 34.8971C125.977 36.1038 124.992 37.5009 123.722 39.0886C122.452 40.6128 120.96 42.1052 119.245 43.5659C117.53 44.963 115.657 46.1379 113.625 47.0905C111.656 48.0431 109.592 48.5194 107.433 48.5194C106.163 48.5194 104.892 48.3289 103.622 47.9479C103.368 48.837 103.114 49.8213 102.86 50.9009C102.67 51.9806 102.574 53.0602 102.574 54.1398C102.574 55.4735 102.765 56.8071 103.146 58.1408C104.035 60.554 105.527 62.2052 107.623 63.0943C109.782 63.9834 111.942 64.428 114.101 64.428Z" fill="#FFA55C"/>
<path d="M19.2401 50.1278C19.2401 48.1438 19.1121 46.4958 18.8561 45.1838C18.6321 43.8718 18.3121 43.2158 17.8961 43.2158C17.6401 43.2158 17.4001 43.4078 17.1761 43.7918C16.9521 44.1438 16.7601 44.6558 16.6001 45.3278C16.4721 45.9678 16.3601 46.7358 16.2641 47.6318C16.2001 48.4958 16.1681 49.4398 16.1681 50.4638C16.1681 52.2878 16.2961 54.2558 16.5521 56.3678C16.8081 58.4478 17.2561 60.4638 17.8961 62.4158C18.3441 60.3678 18.6801 58.2718 18.9041 56.1278C19.1281 53.9518 19.2401 51.9518 19.2401 50.1278ZM39.3521 28.3358C39.3521 28.4958 39.2881 28.6238 39.1601 28.7198C39.0321 28.8158 38.8721 28.9278 38.6801 29.0558C37.7201 29.6318 36.9361 30.4318 36.3281 31.4558C35.7201 32.4798 35.2241 33.5998 34.8401 34.8158C34.4881 36.0318 34.2481 37.2798 34.1201 38.5598C33.9921 39.8078 33.9281 40.9598 33.9281 42.0158C33.9281 42.7518 33.9601 43.6638 34.0241 44.7518C34.1201 45.8078 34.2161 46.9758 34.3121 48.2558C34.4401 49.5358 34.5361 50.8958 34.6001 52.3358C34.6961 53.7438 34.7441 55.1838 34.7441 56.6558C34.7441 58.7358 34.6161 60.7518 34.3601 62.7038C34.1361 64.6558 33.6721 66.3998 32.9681 67.9358C32.2961 69.4718 31.3521 70.7038 30.1361 71.6318C28.9201 72.5598 27.3361 73.0238 25.3841 73.0238C24.4881 73.0238 23.6401 72.8478 22.8401 72.4958C22.0721 72.1758 21.3521 71.7118 20.6801 71.1038C20.0401 70.4958 19.4481 69.7918 18.9041 68.9918C18.3921 68.1918 17.9281 67.3118 17.5121 66.3518C17.0961 67.4718 16.6001 68.5118 16.0241 69.4718C15.4801 70.4318 14.8721 71.2638 14.2001 71.9678C13.5281 72.6718 12.7921 73.2158 11.9921 73.5998C11.1921 73.9838 10.3441 74.1758 9.44811 74.1758C8.07211 74.1758 6.90411 73.8238 5.94411 73.1198C5.01611 72.4158 4.24811 71.4878 3.64011 70.3358C3.03211 69.2158 2.55211 67.9358 2.20011 66.4958C1.88011 65.0238 1.64011 63.5358 1.48011 62.0318C1.32011 60.4958 1.20811 59.0078 1.14411 57.5678C1.11211 56.0958 1.08011 54.7998 1.04811 53.6798C0.984113 51.6638 1.01611 49.7598 1.14411 47.9678C1.30411 46.1438 1.48011 44.5118 1.67211 43.0718C1.86411 41.5998 2.05611 40.3358 2.24811 39.2798C2.44011 38.2238 2.56811 37.4398 2.63211 36.9278C2.66411 36.7358 2.85611 36.6078 3.20811 36.5438C3.59211 36.4798 3.92811 36.4478 4.21611 36.4478C4.44011 36.4478 4.63211 36.4798 4.79211 36.5438C4.95211 36.5758 5.03211 36.6718 5.03211 36.8318C5.03211 37.0238 4.95211 37.3598 4.79211 37.8398C4.63211 38.2878 4.39211 39.1518 4.07211 40.4318C3.94411 41.0078 3.80011 41.8398 3.64011 42.9278C3.51211 43.9838 3.38411 45.1838 3.25611 46.5278C3.16011 47.8718 3.08011 49.3118 3.01611 50.8478C2.95211 52.3518 2.92011 53.8238 2.92011 55.2638C2.92011 56.3838 2.96811 57.6158 3.06411 58.9598C3.16011 60.2718 3.32011 61.5838 3.54411 62.8958C3.76811 64.1758 4.07211 65.4238 4.45611 66.6398C4.84011 67.8558 5.30411 68.9278 5.84811 69.8558C6.42411 70.7838 7.09611 71.5198 7.86411 72.0638C8.63211 72.6398 9.52811 72.9278 10.5521 72.9278C11.3201 72.9278 12.0241 72.7358 12.6641 72.3518C13.3041 71.9678 13.8961 71.4238 14.4401 70.7198C14.9841 70.0478 15.4641 69.2478 15.8801 68.3198C16.3281 67.3918 16.7281 66.3838 17.0801 65.2958C16.3441 63.2798 15.8001 61.1358 15.4481 58.8638C15.0961 56.5918 14.9201 54.4958 14.9201 52.5758C14.9201 51.1678 14.9681 49.7758 15.0641 48.3998C15.1921 47.0238 15.3681 45.7918 15.5921 44.7038C15.8161 43.6158 16.1041 42.7358 16.4561 42.0638C16.8081 41.3918 17.2241 41.0558 17.7041 41.0558C18.0881 41.0558 18.4241 41.2958 18.7121 41.7758C19.0321 42.2558 19.2881 42.9118 19.4801 43.7438C19.7041 44.5758 19.8641 45.5678 19.9601 46.7198C20.0881 47.8398 20.1521 49.0558 20.1521 50.3678C20.1521 52.4798 20.0081 54.7038 19.7201 57.0398C19.4321 59.3438 18.9841 61.5998 18.3761 63.8078C18.7921 64.9278 19.2721 65.9678 19.8161 66.9278C20.3601 67.8558 20.9681 68.6718 21.6401 69.3758C22.3441 70.0798 23.1121 70.6238 23.9441 71.0078C24.8081 71.4238 25.7521 71.6318 26.7761 71.6318C28.1841 71.6318 29.3361 71.2798 30.2321 70.5758C31.1281 69.9038 31.8321 68.9758 32.3441 67.7918C32.8561 66.5758 33.2081 65.1838 33.4001 63.6158C33.5921 62.0158 33.6881 60.3038 33.6881 58.4798C33.6881 56.8478 33.6241 55.1678 33.4961 53.4398C33.4001 51.7118 33.2881 49.9998 33.1601 48.3038C33.0321 46.5758 32.9041 44.9118 32.7761 43.3118C32.6801 41.6798 32.6321 40.1758 32.6321 38.7998C32.6321 37.8078 32.7761 36.6558 33.0641 35.3438C33.3841 34.0318 33.8001 32.7998 34.3121 31.6478C34.8561 30.4638 35.4641 29.4718 36.1361 28.6718C36.8401 27.8398 37.5761 27.4238 38.3441 27.4238C38.5681 27.4238 38.7921 27.5358 39.0161 27.7598C39.2401 27.9518 39.3521 28.1438 39.3521 28.3358Z" fill="#FFF9F4"/>
<path d="M54.3397 60.2078C54.3397 59.7278 54.2597 59.3438 54.0997 59.0558C53.9397 58.7358 53.6837 58.5758 53.3317 58.5758C52.7877 58.5758 52.3717 58.8478 52.0837 59.3918C51.7957 59.9038 51.6677 60.5598 51.6997 61.3598C51.7957 63.0558 52.0997 64.4798 52.6117 65.6318C53.1557 64.8958 53.5717 64.0638 53.8597 63.1358C54.1797 62.2078 54.3397 61.2318 54.3397 60.2078ZM67.2997 60.1598C67.0757 60.6398 66.8357 61.1358 66.5797 61.6478C66.3237 62.1278 66.0357 62.6078 65.7157 63.0878C64.0837 65.5198 62.4357 67.3278 60.7717 68.5118C59.1077 69.6958 57.5557 70.2878 56.1157 70.2878C54.2917 70.2878 52.8997 69.4238 51.9397 67.6958C50.8197 68.8158 49.5557 69.6638 48.1477 70.2398C46.7717 70.8158 45.4117 71.1038 44.0677 71.1038C43.2677 71.1038 42.4997 70.9918 41.7637 70.7678C41.0597 70.5438 40.4517 70.2078 39.9397 69.7598C39.3957 69.2798 38.9637 68.6878 38.6437 67.9838C38.3237 67.2478 38.1637 66.3998 38.1637 65.4398C38.1637 64.2878 38.4357 63.1198 38.9797 61.9358C39.4917 60.7198 40.2117 59.6318 41.1397 58.6718C42.0997 57.6798 43.2197 56.8638 44.4997 56.2238C45.7797 55.5838 47.1717 55.2638 48.6757 55.2638C49.8917 55.2638 50.8357 55.4398 51.5077 55.7918C52.1797 56.1118 52.5157 56.4158 52.5157 56.7038C52.5157 56.8318 52.4517 56.9278 52.3237 56.9918C52.1957 57.0558 52.0837 57.0878 51.9877 57.0878C51.9557 57.0558 51.9237 57.0398 51.8917 57.0398H51.8437C51.4597 56.6878 51.0277 56.4158 50.5477 56.2238C50.0677 55.9998 49.3637 55.8878 48.4357 55.8878C47.1877 55.8878 46.0517 56.1598 45.0277 56.7038C44.0357 57.2158 43.1877 57.9038 42.4837 58.7678C41.7797 59.5998 41.2357 60.5278 40.8517 61.5518C40.4677 62.5758 40.2757 63.5838 40.2757 64.5758C40.2757 66.4958 40.7237 67.8878 41.6197 68.7518C42.5157 69.6158 43.6357 70.0478 44.9797 70.0478C46.0677 70.0478 47.2037 69.7758 48.3877 69.2318C49.5717 68.6878 50.6277 67.9198 51.5557 66.9278C51.0437 65.7758 50.7877 64.2718 50.7877 62.4158C50.7877 61.1998 51.0117 60.1438 51.4597 59.2478C51.9077 58.3518 52.5477 57.9038 53.3797 57.9038C54.5317 57.9038 55.1077 58.5758 55.1077 59.9198C55.1077 61.2638 54.9157 62.4798 54.5317 63.5678C54.1477 64.6238 53.6357 65.5838 52.9957 66.4478C53.8917 68.1118 55.1397 68.9438 56.7397 68.9438C57.9557 68.9438 59.2517 68.4318 60.6277 67.4078C62.0357 66.3838 63.4117 64.8958 64.7557 62.9438C65.0757 62.4638 65.3637 61.9678 65.6197 61.4558C65.8757 60.9438 66.1317 60.4318 66.3877 59.9198L67.2997 60.1598Z" fill="#FFF9F4"/>
<path d="M73.9669 38.7038C73.9669 36.8798 73.6629 35.4238 73.0549 34.3358C72.4789 33.2158 71.5029 32.6558 70.1269 32.6558C69.6469 32.6558 69.1989 32.8158 68.7829 33.1358C68.3989 33.4238 68.0629 33.8238 67.7749 34.3358C67.4869 34.8478 67.2629 35.4398 67.1029 36.1118C66.9429 36.7838 66.8629 37.5038 66.8629 38.2718C66.8629 40.3838 66.8789 42.3038 66.9109 44.0318C66.9429 45.7598 66.9749 47.3918 67.0069 48.9278C67.0709 50.4638 67.1349 51.9518 67.1989 53.3918C67.2629 54.8318 67.3269 56.3038 67.3909 57.8078C68.3189 56.5598 69.1829 55.1358 69.9829 53.5358C70.7829 51.9038 71.4709 50.2398 72.0469 48.5438C72.6549 46.8158 73.1189 45.1038 73.4389 43.4078C73.7909 41.7118 73.9669 40.1438 73.9669 38.7038ZM91.3429 60.1598C91.1189 60.6398 90.8789 61.1358 90.6229 61.6478C90.3989 62.1598 90.1109 62.6398 89.7589 63.0878C87.9989 65.5838 85.9989 67.5518 83.7589 68.9918C81.5189 70.3998 79.2949 71.1038 77.0869 71.1038C75.7109 71.1038 74.3989 70.7838 73.1509 70.1438C71.9029 69.5358 70.7989 68.5438 69.8389 67.1678C69.7109 67.0078 69.6469 66.8638 69.6469 66.7358C69.6469 66.4478 69.8389 66.3038 70.2229 66.3038C70.2549 66.3038 70.3669 66.3358 70.5589 66.3998C70.8149 66.3998 71.1029 66.4958 71.4229 66.6878C71.7749 66.8478 72.2709 66.9278 72.9109 66.9278C73.9029 66.9278 74.8309 66.7518 75.6949 66.3998C76.5589 66.0478 77.2949 65.5998 77.9029 65.0558C78.5429 64.4798 79.0389 63.8398 79.3909 63.1358C79.7429 62.3998 79.9189 61.6478 79.9189 60.8798C79.9189 59.9198 79.6629 59.0878 79.1509 58.3838C78.6709 57.6798 77.8389 57.3278 76.6549 57.3278C75.4389 57.3278 74.3189 57.7598 73.2949 58.6238C72.2709 59.4558 71.3429 60.4798 70.5109 61.6958C69.7109 62.8798 69.0229 64.1438 68.4469 65.4878C67.8709 66.7998 67.4389 67.9518 67.1509 68.9438C66.9909 69.4878 66.8469 69.8238 66.7189 69.9518C66.5909 70.0798 66.4469 70.1438 66.2869 70.1438C65.9349 70.1438 65.7749 69.8078 65.8069 69.1358C65.8069 68.8478 65.8229 68.4958 65.8549 68.0798C65.8869 67.6638 65.9189 67.2158 65.9509 66.7358C65.9509 66.2558 65.9669 65.7758 65.9989 65.2958C66.0309 64.7838 66.0469 64.3198 66.0469 63.9038C66.0469 62.4638 66.0149 60.8158 65.9509 58.9598C65.8869 57.0718 65.8069 55.1358 65.7109 53.1518C65.6149 51.1358 65.5349 49.1358 65.4709 47.1518C65.4069 45.1678 65.3749 43.3438 65.3749 41.6798C65.3749 40.3678 65.4709 39.1038 65.6629 37.8878C65.8549 36.6398 66.1589 35.5518 66.5749 34.6238C66.9909 33.6638 67.5189 32.9118 68.1589 32.3678C68.7989 31.7918 69.5509 31.5038 70.4149 31.5038C71.3109 31.5038 72.0629 31.6638 72.6709 31.9838C73.3109 32.2718 73.8229 32.7038 74.2069 33.2798C74.5909 33.8238 74.8629 34.4958 75.0229 35.2958C75.2149 36.0638 75.3109 36.9118 75.3109 37.8398C75.3109 39.4398 75.0869 41.1998 74.6389 43.1198C74.1909 45.0078 73.5989 46.9118 72.8629 48.8318C72.1269 50.7518 71.2789 52.6078 70.3189 54.3998C69.3909 56.1598 68.4309 57.6958 67.4389 59.0078C67.5029 59.9678 67.5349 60.9598 67.5349 61.9838C67.5669 63.0078 67.6149 64.0958 67.6789 65.2478C68.4789 63.5198 69.3589 62.0318 70.3189 60.7838C70.7349 60.2398 71.1989 59.7118 71.7109 59.1998C72.2549 58.6558 72.8149 58.1758 73.3909 57.7598C73.9989 57.3438 74.6389 57.0078 75.3109 56.7518C76.0149 56.4958 76.7509 56.3678 77.5189 56.3678C78.7349 56.3678 79.7909 56.6718 80.6869 57.2798C81.5829 57.8878 82.0309 58.8638 82.0309 60.2078C82.0309 61.4878 81.7109 62.5758 81.0709 63.4718C80.4629 64.3678 79.6949 65.1198 78.7669 65.7278C77.8389 66.3038 76.8469 66.7358 75.7909 67.0238C74.7349 67.3118 73.7749 67.4878 72.9109 67.5518C72.8469 67.5518 72.8149 67.5678 72.8149 67.5998C72.8149 67.6638 72.8629 67.7598 72.9589 67.8878C73.5989 68.6238 74.3189 69.1518 75.1189 69.4718C75.9189 69.7918 76.7509 69.9518 77.6149 69.9518C78.6709 69.9518 79.7429 69.7598 80.8309 69.3758C81.9189 68.9598 82.9589 68.4318 83.9509 67.7918C84.9429 67.1198 85.8549 66.3678 86.6869 65.5358C87.5509 64.6718 88.2549 63.8078 88.7989 62.9438C89.1189 62.4638 89.4069 61.9678 89.6629 61.4558C89.9189 60.9438 90.1749 60.4318 90.4309 59.9198L91.3429 60.1598Z" fill="#FFF9F4"/>
<path d="M98.1097 57.1838C98.1097 56.3198 97.8857 55.6158 97.4377 55.0718C97.0217 54.4958 96.3337 54.2078 95.3737 54.2078C94.8617 54.2078 94.3977 54.3678 93.9817 54.6878C93.5657 55.0078 93.2137 55.4398 92.9257 55.9838C92.6377 56.4958 92.4137 57.1038 92.2537 57.8078C92.0937 58.5118 92.0137 59.2478 92.0137 60.0158C92.0137 61.2318 92.1417 62.3198 92.3977 63.2798C92.6857 64.2078 93.0857 65.0238 93.5977 65.7278C94.2697 65.1838 94.8777 64.5598 95.4217 63.8558C95.9657 63.1518 96.4297 62.4158 96.8137 61.6478C97.2297 60.8798 97.5497 60.1118 97.7737 59.3438C97.9977 58.5758 98.1097 57.8558 98.1097 57.1838ZM110.254 60.1598C110.03 60.6398 109.79 61.1358 109.534 61.6478C109.31 62.1278 109.022 62.6078 108.67 63.0878C107.102 65.3278 105.31 67.0238 103.294 68.1758C101.31 69.2958 99.4057 69.8558 97.5817 69.8558C96.5577 69.8558 95.5977 69.6798 94.7017 69.3278C93.8377 68.9758 93.0857 68.4478 92.4457 67.7438C91.8057 67.0398 91.2937 66.1598 90.9097 65.1038C90.5257 64.0478 90.3337 62.7998 90.3337 61.3598C90.3337 60.3998 90.4777 59.4398 90.7657 58.4798C91.0537 57.5198 91.4377 56.6558 91.9177 55.8878C92.4297 55.1198 93.0057 54.4958 93.6457 54.0158C94.3177 53.5358 95.0217 53.2958 95.7577 53.2958C96.9417 53.2958 97.8057 53.6478 98.3497 54.3518C98.8937 55.0238 99.1657 55.8878 99.1657 56.9438C99.1657 58.3838 98.7177 59.9518 97.8217 61.6478C96.9577 63.3118 95.7097 64.8638 94.0777 66.3038C95.2937 67.6798 96.8617 68.3678 98.7817 68.3678C100.222 68.3678 101.726 67.9358 103.294 67.0718C104.862 66.1758 106.334 64.7998 107.71 62.9438C108.062 62.4958 108.35 62.0158 108.574 61.5038C108.83 60.9598 109.086 60.4318 109.342 59.9198L110.254 60.1598Z" fill="#FFF9F4"/>
<path d="M151.839 48.0638C150.655 48.0638 149.519 48.1918 148.431 48.4478C147.375 48.7038 146.431 49.0078 145.599 49.3598C144.799 49.7118 144.143 50.0798 143.631 50.4638C143.151 50.8478 142.911 51.1838 142.911 51.4718C142.911 51.8558 143.359 52.0478 144.255 52.0478C145.791 52.0478 147.247 51.6798 148.623 50.9438C150.031 50.2078 151.295 49.2478 152.415 48.0638H151.839ZM165.807 55.2638C165.807 56.8318 165.359 58.5278 164.463 60.3518C163.599 62.1758 162.399 63.9838 160.863 65.7758C159.327 67.5678 157.503 69.2958 155.391 70.9598C153.279 72.6238 151.007 74.0958 148.575 75.3758C146.143 76.6558 143.583 77.6638 140.895 78.3998C138.207 79.1678 135.519 79.5518 132.831 79.5518C132.383 79.5518 131.887 79.5358 131.343 79.5038C130.831 79.4718 130.351 79.3918 129.903 79.2638C129.455 79.1678 129.071 78.9918 128.751 78.7358C128.431 78.5118 128.271 78.1918 128.271 77.7758C128.271 77.1998 128.559 76.6398 129.135 76.0958C129.711 75.5838 130.447 75.1038 131.343 74.6558C132.239 74.2078 133.215 73.8078 134.271 73.4558C135.327 73.1038 136.335 72.7998 137.295 72.5438C138.287 72.2878 139.151 72.0798 139.887 71.9198C140.623 71.7918 141.119 71.7278 141.375 71.7278C141.567 71.7278 141.711 71.7758 141.807 71.8718C141.903 71.9678 141.951 72.0638 141.951 72.1598C141.951 72.3198 141.871 72.3998 141.711 72.3998H141.087C140.255 72.3998 139.199 72.5598 137.919 72.8798C136.639 73.1998 135.391 73.5998 134.175 74.0798C132.959 74.5598 131.919 75.0878 131.055 75.6638C130.191 76.2718 129.759 76.8318 129.759 77.3438C129.759 77.6958 129.871 77.9678 130.095 78.1598C130.351 78.3838 130.655 78.5598 131.007 78.6878C131.359 78.8158 131.727 78.8958 132.111 78.9278C132.495 78.9918 132.831 79.0238 133.119 79.0238C135.391 79.0238 137.711 78.6398 140.079 77.8718C142.479 77.1038 144.799 76.0798 147.039 74.7998C149.311 73.5518 151.439 72.0958 153.423 70.4318C155.439 68.7998 157.199 67.1038 158.703 65.3438C160.207 63.5518 161.391 61.7758 162.255 60.0158C163.119 58.2238 163.551 56.5598 163.551 55.0238C163.551 53.1358 162.767 51.5678 161.199 50.3198C159.663 49.0398 157.119 48.3038 153.567 48.1118C152.127 49.4558 150.543 50.5438 148.815 51.3758C147.119 52.2078 145.391 52.6238 143.631 52.6238C142.383 52.6238 141.759 52.3198 141.759 51.7118C141.759 51.3278 142.015 50.8958 142.527 50.4158C143.071 49.9038 143.807 49.4238 144.735 48.9758C145.695 48.5278 146.831 48.1598 148.143 47.8718C149.455 47.5518 150.895 47.3918 152.463 47.3918H153.039C154.095 46.1438 154.943 44.7838 155.583 43.3118C156.223 41.8078 156.543 40.3358 156.543 38.8958C156.543 37.9358 156.367 37.0238 156.015 36.1598C155.695 35.2638 155.151 34.4958 154.383 33.8558C153.647 33.2158 152.671 32.7038 151.455 32.3198C150.271 31.9358 148.831 31.7438 147.135 31.7438C145.983 31.7438 144.383 31.9038 142.335 32.2238C140.319 32.5438 138.127 33.0398 135.759 33.7118C133.423 34.3518 131.039 35.1678 128.607 36.1598C126.175 37.1518 123.967 38.3038 121.983 39.6158C119.999 40.9278 118.383 42.4158 117.135 44.0798C115.887 45.7438 115.263 47.5838 115.263 49.5998C115.263 49.8558 115.215 50.0798 115.119 50.2718C115.023 50.4318 114.927 50.5118 114.831 50.5118C114.703 50.5118 114.607 50.3838 114.543 50.1278C114.447 49.8398 114.399 49.3758 114.399 48.7358C114.687 46.6558 115.535 44.7678 116.943 43.0718C118.351 41.3758 120.095 39.8718 122.175 38.5598C124.223 37.2158 126.479 36.0638 128.943 35.1038C131.407 34.1438 133.839 33.3598 136.239 32.7518C138.671 32.1118 140.927 31.6478 143.007 31.3598C145.119 31.0398 146.847 30.8798 148.191 30.8798C150.143 30.8798 151.791 31.0718 153.135 31.4558C154.511 31.8078 155.631 32.3038 156.495 32.9438C157.359 33.5518 157.983 34.2878 158.367 35.1518C158.751 36.0158 158.943 36.9278 158.943 37.8878C158.943 39.4558 158.511 41.0878 157.647 42.7838C156.815 44.4478 155.679 45.9998 154.239 47.4398C156.287 47.5358 158.047 47.8078 159.519 48.2558C160.991 48.6718 162.191 49.2318 163.119 49.9358C164.047 50.6078 164.719 51.4078 165.135 52.3358C165.583 53.2318 165.807 54.2078 165.807 55.2638ZM140.367 67.8878C140.367 68.3358 140.335 68.6558 140.271 68.8478C140.207 69.0398 140.031 69.1358 139.743 69.1358C139.103 69.1998 138.783 68.5598 138.783 67.2158C138.751 62.7998 138.703 58.7678 138.639 55.1198C138.607 51.4718 138.559 48.3198 138.495 45.6638C138.463 42.9758 138.431 40.8478 138.399 39.2798C138.367 37.7118 138.351 36.8158 138.351 36.5918C138.351 36.3358 138.431 36.1598 138.591 36.0638C138.751 35.9678 138.943 35.8878 139.167 35.8238C139.423 35.8238 139.615 35.9038 139.743 36.0638C139.903 36.2238 139.983 36.4158 139.983 36.6398C139.983 39.1998 139.999 41.8398 140.031 44.5598C140.063 47.2478 140.095 49.9358 140.127 52.6238C140.191 55.3118 140.239 57.9518 140.271 60.5438C140.335 63.1358 140.367 65.5838 140.367 67.8878Z" fill="#FFF9F4"/>
<path d="M184.465 60.2078C184.465 59.7278 184.385 59.3438 184.225 59.0558C184.065 58.7358 183.809 58.5758 183.457 58.5758C182.913 58.5758 182.497 58.8478 182.209 59.3918C181.921 59.9038 181.793 60.5598 181.825 61.3598C181.921 63.0558 182.225 64.4798 182.737 65.6318C183.281 64.8958 183.697 64.0638 183.985 63.1358C184.305 62.2078 184.465 61.2318 184.465 60.2078ZM197.425 60.1598C197.201 60.6398 196.961 61.1358 196.705 61.6478C196.449 62.1278 196.161 62.6078 195.841 63.0878C194.209 65.5198 192.561 67.3278 190.897 68.5118C189.233 69.6958 187.681 70.2878 186.241 70.2878C184.417 70.2878 183.025 69.4238 182.065 67.6958C180.945 68.8158 179.681 69.6638 178.273 70.2398C176.897 70.8158 175.537 71.1038 174.193 71.1038C173.393 71.1038 172.625 70.9918 171.889 70.7678C171.185 70.5438 170.577 70.2078 170.065 69.7598C169.521 69.2798 169.089 68.6878 168.769 67.9838C168.449 67.2478 168.289 66.3998 168.289 65.4398C168.289 64.2878 168.561 63.1198 169.105 61.9358C169.617 60.7198 170.337 59.6318 171.265 58.6718C172.225 57.6798 173.345 56.8638 174.625 56.2238C175.905 55.5838 177.297 55.2638 178.801 55.2638C180.017 55.2638 180.961 55.4398 181.633 55.7918C182.305 56.1118 182.641 56.4158 182.641 56.7038C182.641 56.8318 182.577 56.9278 182.449 56.9918C182.321 57.0558 182.209 57.0878 182.113 57.0878C182.081 57.0558 182.049 57.0398 182.017 57.0398H181.969C181.585 56.6878 181.153 56.4158 180.673 56.2238C180.193 55.9998 179.489 55.8878 178.561 55.8878C177.313 55.8878 176.177 56.1598 175.153 56.7038C174.161 57.2158 173.313 57.9038 172.609 58.7678C171.905 59.5998 171.361 60.5278 170.977 61.5518C170.593 62.5758 170.401 63.5838 170.401 64.5758C170.401 66.4958 170.849 67.8878 171.745 68.7518C172.641 69.6158 173.761 70.0478 175.105 70.0478C176.193 70.0478 177.329 69.7758 178.513 69.2318C179.697 68.6878 180.753 67.9198 181.681 66.9278C181.169 65.7758 180.913 64.2718 180.913 62.4158C180.913 61.1998 181.137 60.1438 181.585 59.2478C182.033 58.3518 182.673 57.9038 183.505 57.9038C184.657 57.9038 185.233 58.5758 185.233 59.9198C185.233 61.2638 185.041 62.4798 184.657 63.5678C184.273 64.6238 183.761 65.5838 183.121 66.4478C184.017 68.1118 185.265 68.9438 186.865 68.9438C188.081 68.9438 189.377 68.4318 190.753 67.4078C192.161 66.3838 193.537 64.8958 194.881 62.9438C195.201 62.4638 195.489 61.9678 195.745 61.4558C196.001 60.9438 196.257 60.4318 196.513 59.9198L197.425 60.1598Z" fill="#FFF9F4"/>
<path d="M204.092 38.7038C204.092 36.8798 203.788 35.4238 203.18 34.3358C202.604 33.2158 201.628 32.6558 200.252 32.6558C199.772 32.6558 199.324 32.8158 198.908 33.1358C198.524 33.4238 198.188 33.8238 197.9 34.3358C197.612 34.8478 197.388 35.4398 197.228 36.1118C197.068 36.7838 196.988 37.5038 196.988 38.2718C196.988 40.3838 197.004 42.3038 197.036 44.0318C197.068 45.7598 197.1 47.3918 197.132 48.9278C197.196 50.4638 197.26 51.9518 197.324 53.3918C197.388 54.8318 197.452 56.3038 197.516 57.8078C198.444 56.5598 199.308 55.1358 200.108 53.5358C200.908 51.9038 201.596 50.2398 202.172 48.5438C202.78 46.8158 203.244 45.1038 203.564 43.4078C203.916 41.7118 204.092 40.1438 204.092 38.7038ZM221.468 60.1598C221.244 60.6398 221.004 61.1358 220.748 61.6478C220.524 62.1598 220.236 62.6398 219.884 63.0878C218.124 65.5838 216.124 67.5518 213.884 68.9918C211.644 70.3998 209.42 71.1038 207.212 71.1038C205.836 71.1038 204.524 70.7838 203.276 70.1438C202.028 69.5358 200.924 68.5438 199.964 67.1678C199.836 67.0078 199.772 66.8638 199.772 66.7358C199.772 66.4478 199.964 66.3038 200.348 66.3038C200.38 66.3038 200.492 66.3358 200.684 66.3998C200.94 66.3998 201.228 66.4958 201.548 66.6878C201.9 66.8478 202.396 66.9278 203.036 66.9278C204.028 66.9278 204.956 66.7518 205.82 66.3998C206.684 66.0478 207.42 65.5998 208.028 65.0558C208.668 64.4798 209.164 63.8398 209.516 63.1358C209.868 62.3998 210.044 61.6478 210.044 60.8798C210.044 59.9198 209.788 59.0878 209.276 58.3838C208.796 57.6798 207.964 57.3278 206.78 57.3278C205.564 57.3278 204.444 57.7598 203.42 58.6238C202.396 59.4558 201.468 60.4798 200.636 61.6958C199.836 62.8798 199.148 64.1438 198.572 65.4878C197.996 66.7998 197.564 67.9518 197.276 68.9438C197.116 69.4878 196.972 69.8238 196.844 69.9518C196.716 70.0798 196.572 70.1438 196.412 70.1438C196.06 70.1438 195.9 69.8078 195.932 69.1358C195.932 68.8478 195.948 68.4958 195.98 68.0798C196.012 67.6638 196.044 67.2158 196.076 66.7358C196.076 66.2558 196.092 65.7758 196.124 65.2958C196.156 64.7838 196.172 64.3198 196.172 63.9038C196.172 62.4638 196.14 60.8158 196.076 58.9598C196.012 57.0718 195.932 55.1358 195.836 53.1518C195.74 51.1358 195.66 49.1358 195.596 47.1518C195.532 45.1678 195.5 43.3438 195.5 41.6798C195.5 40.3678 195.596 39.1038 195.788 37.8878C195.98 36.6398 196.284 35.5518 196.7 34.6238C197.116 33.6638 197.644 32.9118 198.284 32.3678C198.924 31.7918 199.676 31.5038 200.54 31.5038C201.436 31.5038 202.188 31.6638 202.796 31.9838C203.436 32.2718 203.948 32.7038 204.332 33.2798C204.716 33.8238 204.988 34.4958 205.148 35.2958C205.34 36.0638 205.436 36.9118 205.436 37.8398C205.436 39.4398 205.212 41.1998 204.764 43.1198C204.316 45.0078 203.724 46.9118 202.988 48.8318C202.252 50.7518 201.404 52.6078 200.444 54.3998C199.516 56.1598 198.556 57.6958 197.564 59.0078C197.628 59.9678 197.66 60.9598 197.66 61.9838C197.692 63.0078 197.74 64.0958 197.804 65.2478C198.604 63.5198 199.484 62.0318 200.444 60.7838C200.86 60.2398 201.324 59.7118 201.836 59.1998C202.38 58.6558 202.94 58.1758 203.516 57.7598C204.124 57.3438 204.764 57.0078 205.436 56.7518C206.14 56.4958 206.876 56.3678 207.644 56.3678C208.86 56.3678 209.916 56.6718 210.812 57.2798C211.708 57.8878 212.156 58.8638 212.156 60.2078C212.156 61.4878 211.836 62.5758 211.196 63.4718C210.588 64.3678 209.82 65.1198 208.892 65.7278C207.964 66.3038 206.972 66.7358 205.916 67.0238C204.86 67.3118 203.9 67.4878 203.036 67.5518C202.972 67.5518 202.94 67.5678 202.94 67.5998C202.94 67.6638 202.988 67.7598 203.084 67.8878C203.724 68.6238 204.444 69.1518 205.244 69.4718C206.044 69.7918 206.876 69.9518 207.74 69.9518C208.796 69.9518 209.868 69.7598 210.956 69.3758C212.044 68.9598 213.084 68.4318 214.076 67.7918C215.068 67.1198 215.98 66.3678 216.812 65.5358C217.676 64.6718 218.38 63.8078 218.924 62.9438C219.244 62.4638 219.532 61.9678 219.788 61.4558C220.044 60.9438 220.3 60.4318 220.556 59.9198L221.468 60.1598Z" fill="#FFF9F4"/>
<path d="M228.235 57.1838C228.235 56.3198 228.011 55.6158 227.563 55.0718C227.147 54.4958 226.459 54.2078 225.499 54.2078C224.987 54.2078 224.523 54.3678 224.107 54.6878C223.691 55.0078 223.339 55.4398 223.051 55.9838C222.763 56.4958 222.539 57.1038 222.379 57.8078C222.219 58.5118 222.139 59.2478 222.139 60.0158C222.139 61.2318 222.267 62.3198 222.523 63.2798C222.811 64.2078 223.211 65.0238 223.723 65.7278C224.395 65.1838 225.003 64.5598 225.547 63.8558C226.091 63.1518 226.555 62.4158 226.939 61.6478C227.355 60.8798 227.675 60.1118 227.899 59.3438C228.123 58.5758 228.235 57.8558 228.235 57.1838ZM240.379 60.1598C240.155 60.6398 239.915 61.1358 239.659 61.6478C239.435 62.1278 239.147 62.6078 238.795 63.0878C237.227 65.3278 235.435 67.0238 233.419 68.1758C231.435 69.2958 229.531 69.8558 227.707 69.8558C226.683 69.8558 225.723 69.6798 224.827 69.3278C223.963 68.9758 223.211 68.4478 222.571 67.7438C221.931 67.0398 221.419 66.1598 221.035 65.1038C220.651 64.0478 220.459 62.7998 220.459 61.3598C220.459 60.3998 220.603 59.4398 220.891 58.4798C221.179 57.5198 221.563 56.6558 222.043 55.8878C222.555 55.1198 223.131 54.4958 223.771 54.0158C224.443 53.5358 225.147 53.2958 225.883 53.2958C227.067 53.2958 227.931 53.6478 228.475 54.3518C229.019 55.0238 229.291 55.8878 229.291 56.9438C229.291 58.3838 228.843 59.9518 227.947 61.6478C227.083 63.3118 225.835 64.8638 224.203 66.3038C225.419 67.6798 226.987 68.3678 228.907 68.3678C230.347 68.3678 231.851 67.9358 233.419 67.0718C234.987 66.1758 236.459 64.7998 237.835 62.9438C238.187 62.4958 238.475 62.0158 238.699 61.5038C238.955 60.9598 239.211 60.4318 239.467 59.9198L240.379 60.1598Z" fill="#FFF9F4"/>
</svg>
